<svg width="2331" height="2065" fill="none" xmlns="http://www.w3.org/2000/svg"><path fill-rule="evenodd" clip-rule="evenodd" d="M.34 662.537L1130.2 251.302l17.54 48.203 168.45-61.309 13.49 37.071 37.59-13.68-13.49-37.072 37.63-13.699 13.17 36.185L1367 260.68l13.68 37.588 37.59-13.681-13.59-37.32 37.59-13.68L1428.59 196l-.01.001-17.13-47.068 93.62-34.072 13.61 37.408 37.59-13.681-13.62-37.408L1820.61.012 2330.74 1401.6l-902.64 328.53-13.51-37.13-166.66 60.66-13.34-36.66-37.32 13.58-13.68-37.58-37.59 13.68 13.68 37.59 37.32-13.59 13.34 36.66-94.43 34.37 13.52 37.13-618.956 225.28L.339 662.537z" fill="#0F6A70"/></svg>